PathFileType	4	(X/Y/Z)	c:/Users/goper/Files/vsCode/490R/osim_files/A04/A04_Fast_06.trc
DataRate	CameraRate	NumFrames	NumMarkers	Units                	OrigDataRate	OrigDataStartFrame	OrigNumFrames
120.00	120.00	4	36	mm	120.0	1031	1374
                Frame#	Time	LPSIS			LASIS			LTH1			LTH2			LTH3			LTH4			LLFE			LMFE			LSH1			LSH2			LSH3			LSH4			LLMAL			LMMAL			LCAL			LMTP5			LTOE			LMTP1			RPSIS			RASIS			RTH1			RTH2			RTH3			RTH4			RLFE			RMFE			RSH1			RSH2			RSH3			RSH4			RLMAL			RMMAL			RCAL			RMTP1			RTOE			RMTP5		
		X1	Y1	Z1	X2	Y2	Z2	X3	Y3	Z3	X4	Y4	Z4	X5	Y5	Z5	X6	Y6	Z6	X7	Y7	Z7	X8	Y8	Z8	X9	Y9	Z9	X10	Y10	Z10	X11	Y11	Z11	X12	Y12	Z12	X13	Y13	Z13	X14	Y14	Z14	X15	Y15	Z15	X16	Y16	Z16	X17	Y17	Z17	X18	Y18	Z18	X19	Y19	Z19	X20	Y20	Z20	X21	Y21	Z21	X22	Y22	Z22	X23	Y23	Z23	X24	Y24	Z24	X25	Y25	Z25	X26	Y26	Z26	X27	Y27	Z27	X28	Y28	Z28	X29	Y29	Z29	X30	Y30	Z30	X31	Y31	Z31	X32	Y32	Z32	X33	Y33	Z33	X34	Y34	Z34	X35	Y35	Z35	X36	Y36	Z36

1031	8.58333	-2961.66333	1036.95935	265.94080	-3184.20142	987.95209	344.49161	-3053.15991	680.64148	387.24026	-3051.29224	636.00708	387.45874	-3113.84741	674.46893	386.67593	-3104.22559	630.32715	386.32440	-3047.01318	493.47614	387.98169	-3078.30078	476.23669	253.35640	-2952.66113	447.91049	381.83826	-2926.47949	412.06989	375.34320	-2998.91064	403.08395	374.34851	-2964.88037	376.49127	370.51959	-2709.36768	230.63103	313.86649	-2739.52173	211.08896	233.13048	-2647.24878	241.61975	245.53886	-2762.00635	95.96914	367.99033	-2814.80518	70.20007	317.15295	-2801.08374	68.53355	269.74161	-2957.21704	1025.85632	159.15860	0.00000	0.00000	0.00000	-3157.53638	706.85327	17.62414	-3172.41040	669.57904	14.20379	-3215.07544	729.25262	1.80331	0.00000	0.00000	0.00000	0.00000	0.00000	0.00000	-3296.66895	554.93665	135.46638	-3236.23779	342.65994	28.97709	0.00000	0.00000	0.00000	-3297.40063	343.46527	20.54088	-3297.76953	297.78244	26.29783	0.00000	0.00000	0.00000	-3305.16357	117.68119	163.44255	-3215.00806	56.62182	113.74514	-3441.13062	74.01261	135.93732	-3459.24707	96.70335	88.11066	-3423.48340	63.75745	16.75331
1032	8.59167	-2971.56958	1039.28857	264.36841	-3194.05542	990.14490	342.53156	-3071.20996	679.46783	387.39066	-3070.46045	634.84216	387.43893	-3132.12451	675.36676	386.60107	-3123.95825	630.92786	386.21869	-3070.06055	490.94662	389.45432	-3098.12988	472.15045	254.00067	-2972.06958	446.62146	379.93768	-2945.04224	412.43985	375.70172	-3017.01367	401.48792	374.97424	-2981.92822	375.47839	371.21500	-2724.57275	237.71573	312.77826	-2753.74512	215.86859	232.51328	-2663.51172	252.41576	244.04042	-2768.97437	100.16322	367.19724	-2820.11157	70.15781	316.88034	-2806.40454	69.46549	269.45297	-2967.07397	1028.15625	157.68935	0.00000	0.00000	0.00000	0.00000	0.00000	0.00000	-3177.44312	672.05701	11.60618	-3222.43750	730.20380	0.93859	0.00000	0.00000	0.00000	0.00000	0.00000	0.00000	-3298.66528	554.27698	135.41074	-3241.58667	342.17712	27.18984	0.00000	0.00000	0.00000	-3300.02344	343.19946	20.22049	-3300.18774	297.74240	26.07499	0.00000	0.00000	0.00000	-3305.94043	117.58238	163.29457	-3215.32227	57.02596	113.67482	-3441.54614	73.05311	136.01767	-3457.88086	94.58076	87.16052	-3423.88770	62.79562	16.74743
1033	8.60000	-2981.25244	1041.67322	262.87711	-3202.96973	992.16339	341.31732	-3089.27832	678.97913	387.55182	-3089.76465	633.95020	387.46786	-3150.22192	676.85870	386.46893	-3144.50928	631.45563	386.80078	-3091.45874	487.95865	389.98102	-3119.03784	469.03134	254.50902	-2992.84131	447.32730	382.79001	-2964.49683	412.84851	375.88876	-3036.02002	400.22571	375.44272	-3000.70972	375.01938	371.25690	-2741.35327	243.95419	312.09164	-2770.54932	219.87572	232.06175	-2681.85815	262.97845	242.75928	-2775.71460	103.46463	366.55984	-2825.15576	69.74250	316.69766	-2811.99463	70.04704	269.28702	-2977.08887	1030.77502	156.11783	0.00000	0.00000	0.00000	-3173.28247	709.54059	15.55677	-3190.63110	671.19104	12.90828	-3229.65820	731.21167	0.25851	0.00000	0.00000	0.00000	0.00000	0.00000	0.00000	-3302.80542	554.77667	136.91904	-3244.04199	342.82776	26.80395	0.00000	0.00000	0.00000	-3302.70825	343.25488	20.13840	-3302.46069	297.79422	25.92306	0.00000	0.00000	0.00000	-3306.10059	116.88403	163.47604	-3215.58691	57.55288	113.64188	-3441.86572	72.22646	136.10580	-3458.46460	93.66260	87.17835	-3424.11914	61.94875	16.75048
1034	8.60833	-2990.77368	1044.11902	261.29623	-3213.65137	994.89368	338.83026	-3107.39697	679.28223	387.73068	-3109.20142	634.33820	387.79855	-3168.41138	679.03894	386.37503	-3163.79883	633.70752	386.79575	-3112.95337	486.53656	390.21829	-3141.60425	466.74426	255.15833	-3013.38159	448.01404	382.86551	-2984.54565	414.13757	375.98294	-3055.60840	400.38434	376.00516	-3019.69116	375.53903	371.25458	-2759.91602	249.12936	311.98813	-2787.62280	223.70444	231.97429	-2702.91016	272.90897	242.18176	-2783.36279	105.88393	365.52356	-2830.75537	68.79964	316.04633	-2816.94385	70.33203	268.07788	-2986.90454	1033.43286	154.61963	0.00000	0.00000	0.00000	0.00000	0.00000	0.00000	0.00000	0.00000	0.00000	-3237.03613	732.35400	-0.30653	0.00000	0.00000	0.00000	0.00000	0.00000	0.00000	-3305.16943	554.82977	137.91505	-3245.52246	343.84482	27.11551	0.00000	0.00000	0.00000	-3305.10327	343.21423	20.01678	-3304.49780	297.76337	25.85869	0.00000	0.00000	0.00000	-3306.72998	116.84563	163.39549	-3213.40845	58.92228	113.07478	-3442.24365	71.58947	136.18951	-3458.97144	92.84107	87.23589	-3424.50659	61.36478	16.81450
